<svg xmlns="http://www.w3.org/2000/svg" viewBox="0 0 512 512" width="512" height="512" font-family="'Arial Black','Franklin Gothic Heavy','Microsoft YaHei','PingFang SC',sans-serif">
<rect x="0" y="0" width="512" height="512" fill="#f2e8d5"/>
<rect x="0" y="0" width="512" height="512" fill="#f2e8d5"/><rect x="10" y="10" width="492" height="492" fill="none" stroke="#1a1a1a" stroke-width="8"/><rect x="10" y="10" width="492" height="44" fill="#1a1a1a"/><rect x="10" y="422" width="492" height="80" fill="#1a1a1a"/><text x="256" y="88" font-size="52" text-anchor="middle" font-weight="800" fill="#1a1a1a">地图图例消消乐</text><text x="256" y="126" font-size="22" text-anchor="middle" font-weight="800" fill="#5a5044">把符号和名称配成一对</text><g transform="translate(50 168) scale(0.533333)"><path d="M209.463 120C210.572 126.769 218.554 141.507 215.007 153.844C211.461 166.181 203.27 172.967 191.729 181.687C180.187 190.406 171.645 194.167 157.299 197.441C142.953 200.716 135.531 196.788 120 198.057C104.469 199.327 94.6122 206.527 79.6436 203.789C64.675 201.05 55.2523 194.651 45.1569 184.365C35.0615 174.079 33.8239 165.23 29.1666 152.357C24.5093 139.484 20.5691 132.479 21.8705 120C23.1718 107.521 28.1163 100.34 35.6732 89.9608C43.23 79.5814 50.0385 77.146 59.6548 68.1031C69.271 59.0602 71.6854 51.5968 83.7544 44.7461C95.8235 37.8953 106.09 32.6276 120 33.8495C133.91 35.0714 138.385 46.4548 153.303 50.8556C168.221 55.2564 184.402 48.026 194.589 55.8535C204.776 63.6809 201.263 77.1634 204.237 89.9927C207.212 102.822 208.418 113.999 209.463 120" fill="none" stroke="#1a1a1a" stroke-width="4.6" stroke-linejoin="round" stroke-linecap="round"/><path d="M204.578 118C200.522 122.296 191.494 131.808 184.299 139.48C177.105 147.152 174.441 147.732 168.606 156.361C162.771 164.99 164.046 178.928 155.125 182.623C146.204 186.318 135.192 177.449 124 174.837C112.808 172.225 109.748 171.829 99.1648 169.563C88.5816 167.298 78.8869 169.272 71.0839 163.508C63.281 157.744 65.4255 149.846 60.1503 140.745C54.875 131.643 44.3136 126.958 44.7076 118C45.1016 109.042 57.6605 105.76 62.1202 95.957C66.5799 86.154 59.8821 75.4809 67.0061 68.9852C74.1301 62.4896 86.3414 66.3855 97.7402 63.4788C109.139 60.5721 112.618 56.2741 124 54.4517C135.382 52.6293 143.976 50.8356 154.649 54.3666C165.321 57.8977 168.724 64.6417 177.364 72.107C186.004 79.5722 192.407 82.5143 197.85 91.693C203.293 100.872 203.232 112.739 204.578 118" fill="none" stroke="#1a1a1a" stroke-width="4.6" stroke-linejoin="round" stroke-linecap="round"/><path d="M169.192 123C168.451 126.454 168.6 133.973 165.487 140.272C162.374 146.572 160.115 151.292 153.625 154.497C147.135 157.703 140.364 154.322 133.039 156.3C125.714 158.278 123.734 163.727 117 164.387C110.266 165.048 106.069 162.119 99.3705 159.603C92.6717 157.086 87.8298 156.329 83.506 151.805C79.1822 147.281 79.6999 142.742 77.7515 136.981C75.803 131.22 74.4734 128.845 73.7638 123C73.0542 117.155 71.7209 113.056 74.2034 107.755C76.6859 102.453 81.1723 100.824 86.1764 96.4917C91.1806 92.1594 93.0594 87.8769 99.2242 86.0934C105.389 84.3099 110.235 86.8573 117 87.5743C123.765 88.2914 126.039 88.6218 133.049 89.6786C140.059 90.7354 146.752 89.2241 152.049 92.8581C157.346 96.4922 156.105 101.82 159.533 107.849C162.962 113.877 167.26 119.97 169.192 123" fill="none" stroke="#1a1a1a" stroke-width="4.6" stroke-linejoin="round" stroke-linecap="round"/><path d="M146.27 120C146.041 121.648 146.996 125.672 145.127 128.238C143.257 130.805 139.558 130.352 136.921 132.832C134.284 135.313 134.926 139.567 131.942 140.642C128.958 141.717 125.827 138.518 122 138.207C118.173 137.896 115.715 140.227 112.807 139.086C109.9 137.945 110.159 134.704 107.463 132.502C104.767 130.3 100.602 130.577 99.3268 128.077C98.0513 125.576 101.029 123.211 101.085 120C101.142 116.789 98.8691 114.985 99.6095 112.024C100.35 109.063 102.191 107.51 104.787 105.197C107.383 102.885 109.147 101.397 112.59 100.462C116.032 99.5269 118.19 100.616 122 100.521C125.81 100.427 127.973 99.2442 131.639 99.9878C135.304 100.731 138.429 101.599 140.327 104.239C142.224 106.879 139.937 110.035 141.125 113.187C142.314 116.339 145.241 118.637 146.27 120" fill="none" stroke="#1a1a1a" stroke-width="4.6" stroke-linejoin="round" stroke-linecap="round"/></g><g transform="translate(192 168) scale(0.533333)"><line x1="18" y1="120" x2="222" y2="120" stroke="#1a1a1a" stroke-width="9" stroke-linecap="butt"/><line x1="28" y1="104" x2="28" y2="136" stroke="#1a1a1a" stroke-width="6" stroke-linecap="butt"/><line x1="45" y1="104" x2="45" y2="136" stroke="#1a1a1a" stroke-width="6" stroke-linecap="butt"/><line x1="62" y1="104" x2="62" y2="136" stroke="#1a1a1a" stroke-width="6" stroke-linecap="butt"/><line x1="79" y1="104" x2="79" y2="136" stroke="#1a1a1a" stroke-width="6" stroke-linecap="butt"/><line x1="96" y1="104" x2="96" y2="136" stroke="#1a1a1a" stroke-width="6" stroke-linecap="butt"/><line x1="113" y1="104" x2="113" y2="136" stroke="#1a1a1a" stroke-width="6" stroke-linecap="butt"/><line x1="130" y1="104" x2="130" y2="136" stroke="#1a1a1a" stroke-width="6" stroke-linecap="butt"/><line x1="147" y1="104" x2="147" y2="136" stroke="#1a1a1a" stroke-width="6" stroke-linecap="butt"/><line x1="164" y1="104" x2="164" y2="136" stroke="#1a1a1a" stroke-width="6" stroke-linecap="butt"/><line x1="181" y1="104" x2="181" y2="136" stroke="#1a1a1a" stroke-width="6" stroke-linecap="butt"/><line x1="198" y1="104" x2="198" y2="136" stroke="#1a1a1a" stroke-width="6" stroke-linecap="butt"/><line x1="215" y1="104" x2="215" y2="136" stroke="#1a1a1a" stroke-width="6" stroke-linecap="butt"/></g><g transform="translate(334 168) scale(0.533333)"><path d="M 52 206 L 120 44 L 188 206" fill="none" stroke="#1a1a1a" stroke-width="9" stroke-linejoin="round" stroke-linecap="round"/><line x1="59.5556" y1="188" x2="180.444" y2="188" stroke="#1a1a1a" stroke-width="5" stroke-linecap="butt"/><line x1="78.8642" y1="142" x2="161.136" y2="142" stroke="#1a1a1a" stroke-width="5" stroke-linecap="butt"/><line x1="98.1728" y1="96" x2="141.827" y2="96" stroke="#1a1a1a" stroke-width="5" stroke-linecap="butt"/><line x1="117.481" y1="50" x2="122.519" y2="50" stroke="#1a1a1a" stroke-width="5" stroke-linecap="butt"/><line x1="59.5556" y1="188" x2="161.136" y2="142" stroke="#1a1a1a" stroke-width="4.4" stroke-linecap="round"/><line x1="180.444" y1="188" x2="78.8642" y2="142" stroke="#1a1a1a" stroke-width="4.4" stroke-linecap="round"/><line x1="78.8642" y1="142" x2="141.827" y2="96" stroke="#1a1a1a" stroke-width="4.4" stroke-linecap="round"/><line x1="161.136" y1="142" x2="98.1728" y2="96" stroke="#1a1a1a" stroke-width="4.4" stroke-linecap="round"/><line x1="98.1728" y1="96" x2="122.519" y2="50" stroke="#1a1a1a" stroke-width="4.4" stroke-linecap="round"/><line x1="141.827" y1="96" x2="117.481" y2="50" stroke="#1a1a1a" stroke-width="4.4" stroke-linecap="round"/><line x1="44" y1="206" x2="196" y2="206" stroke="#1a1a1a" stroke-width="10" stroke-linecap="butt"/><circle cx="120" cy="34" r="12" fill="#d4a843" stroke="#1a1a1a" stroke-width="6"/></g><g transform="translate(50 310) scale(0.533333)"><path d="M 120 40 L 140.737 95.4579 L 199.889 98.0426 L 153.553 134.902 L 169.374 191.957 L 120 159.28 L 70.626 191.957 L 86.4467 134.902 L 40.1113 98.0426 L 99.2629 95.4579 Z" fill="#cc0000" stroke="#1a1a1a" stroke-width="5" stroke-linejoin="round" stroke-linecap="round"/></g><g transform="translate(192 310) scale(0.533333)"><path d="M205.865 120C205.701 126.059 210.352 140.09 205.046 150.295C199.74 160.501 188.716 161.247 179.336 171.029C169.956 180.81 170.014 194.689 158.147 199.202C146.28 203.715 134.767 194.617 120 193.595C105.233 192.572 98.7672 196.381 84.3141 194.092C69.8611 191.803 57.1434 191.072 47.7348 182.148C38.3261 173.224 43.4562 161.9 37.2709 149.47C31.0857 137.04 18.2852 132.314 16.8086 120C15.332 107.686 22.423 99.2291 29.8877 87.8999C37.3525 76.5706 43.3873 72.0433 54.1324 63.3538C64.8774 54.6643 70.4395 49.3013 83.613 44.4524C96.7865 39.6036 105.937 38.0882 120 39.1096C134.063 40.1309 139.236 46.0154 153.927 49.5592C168.618 53.103 183.666 48.6445 193.455 56.8284C203.244 65.0123 200.391 77.8443 202.873 90.4787C205.355 103.113 205.267 114.096 205.865 120" fill="#9dc4dd" stroke="#3d7fb0" stroke-width="7" stroke-linejoin="round" stroke-linecap="round"/><path d="M55 96 q32.5 -9 65 0 q32.5 9 65 0" fill="none" stroke="#3d7fb0" stroke-width="5" stroke-linejoin="round" stroke-linecap="round"/><path d="M55 120 q32.5 -9 65 0 q32.5 9 65 0" fill="none" stroke="#3d7fb0" stroke-width="5" stroke-linejoin="round" stroke-linecap="round"/><path d="M55 144 q32.5 -9 65 0 q32.5 9 65 0" fill="none" stroke="#3d7fb0" stroke-width="5" stroke-linejoin="round" stroke-linecap="round"/></g><g transform="translate(334 310) scale(0.533333)"><rect x="10" y="152" width="220" height="42" fill="#fbf6ea" stroke="#1a1a1a" stroke-width="7"/><rect x="18" y="118" width="28" height="36" fill="#fbf6ea" stroke="#1a1a1a" stroke-width="6"/><rect x="63" y="118" width="28" height="36" fill="#fbf6ea" stroke="#1a1a1a" stroke-width="6"/><rect x="108" y="118" width="28" height="36" fill="#fbf6ea" stroke="#1a1a1a" stroke-width="6"/><rect x="153" y="118" width="28" height="36" fill="#fbf6ea" stroke="#1a1a1a" stroke-width="6"/><rect x="198" y="118" width="28" height="36" fill="#fbf6ea" stroke="#1a1a1a" stroke-width="6"/><line x1="16" y1="162" x2="224" y2="162" stroke="#5a5044" stroke-width="3" stroke-linecap="butt"/><line x1="16" y1="178" x2="224" y2="178" stroke="#5a5044" stroke-width="3" stroke-linecap="butt"/></g><g transform="translate(50 452) scale(0.533333)"><path d="M 26 202 L 120 82 L 214 202 Z" fill="#fbf6ea" stroke="#1a1a1a" stroke-width="7" stroke-linejoin="round" stroke-linecap="round"/><path d="M 120 82 L 144 124 L 96 124 Z" fill="#1a1a1a"/></g><g transform="translate(192 452) scale(0.533333)"><circle cx="120" cy="46" r="13" fill="none" stroke="#1a1a1a" stroke-width="7"/><line x1="120" y1="60" x2="120" y2="196" stroke="#1a1a1a" stroke-width="10" stroke-linecap="butt"/><line x1="84" y1="92" x2="156" y2="92" stroke="#1a1a1a" stroke-width="9" stroke-linecap="butt"/><path d="M46 148 C 54 194, 100 210, 120 210 C 140 210, 186 194, 194 148" fill="none" stroke="#1a1a1a" stroke-width="10" stroke-linejoin="round" stroke-linecap="round"/><path d="M 46 148 L 30 130 L 68 132 Z" fill="#1a1a1a"/><path d="M 194 148 L 210 130 L 172 132 Z" fill="#1a1a1a"/></g><g transform="translate(334 452) scale(0.533333)"><path d="M16 190C24.28 189.64 50.84 198.44 62 188C73.16 177.56 68.28 146.76 78 132C87.72 117.24 102.68 116.08 116 106C129.32 95.92 138.32 85 152 76C165.68 67 178.32 61.04 192 56C205.68 50.96 221.52 49.44 228 48" fill="none" stroke="#cc0000" stroke-width="8" stroke-linejoin="round" stroke-linecap="round"/><path d="M16 226C25.72 225.64 56.32 229.4 70 224C83.68 218.6 80.48 203.2 92 196C103.52 188.8 118.16 188.32 134 184C149.84 179.68 163.08 174.88 180 172C196.92 169.12 219.36 168.72 228 168" fill="none" stroke="#cc0000" stroke-width="8" stroke-linejoin="round" stroke-linecap="round"/><text x="150" y="40" font-size="26" text-anchor="middle" font-weight="800" fill="#cc0000">20℃</text><text x="74" y="214" font-size="26" text-anchor="middle" font-weight="800" fill="#cc0000">10℃</text></g><text x="256" y="452" font-size="24" text-anchor="middle" font-weight="800" fill="#f2e8d5">60 个初中地理常见图例</text><text x="256" y="484" font-size="17" text-anchor="middle" font-weight="800" fill="#d4a843">六关逐关加量 · 单人闯关 / 双人 PK</text>
</svg>
