<svg xmlns="http://www.w3.org/2000/svg" viewBox="0 0 900 560" width="900" height="560" font-family="'Arial Black','Franklin Gothic Heavy','Microsoft YaHei','PingFang SC',sans-serif">
<rect x="0" y="0" width="900" height="560" fill="#f2e8d5"/>
<rect x="5" y="5" width="890" height="550" fill="none" stroke="#1a1a1a" stroke-width="4"/>
<path d="M 316 336 L 576 336 L 446 106 Z" fill="#cc3a26" opacity="0.16"/><path d="M316 336L446 106L576 336" fill="none" stroke="#cc3a26" stroke-width="6" stroke-linejoin="round" stroke-linecap="round"/><path d="M 24 336 L 316 336 L 150 448 L 24 448 Z" fill="#2d6ca8" opacity="0.22"/><path d="M 576 336 L 876 336 L 876 448 L 740 448 Z" fill="#2d6ca8" opacity="0.12"/><path d="M316 336L150 448" fill="none" stroke="#2d6ca8" stroke-width="6" stroke-linejoin="round" stroke-linecap="round"/><path d="M576 336L740 448" fill="none" stroke="#2d6ca8" stroke-width="6" stroke-linejoin="round" stroke-linecap="round"/><g transform="translate(390.9 113.9) scale(0.95)"><path d="M 22 70C 6 70 1 53 16 46C 12 29 33 18 46 27C 53 7 83 7 90 28C 109 30 115 51 100 62C 97 68 92 70 86 70Z" fill="#cfc7b6" stroke="#1a1a1a" stroke-width="3.57895" stroke-linejoin="round" stroke-linecap="round"/></g><g transform="translate(233.3 356.3) scale(1.15)"><path d="M 22 70C 6 70 1 53 16 46C 12 29 33 18 46 27C 53 7 83 7 90 28C 109 30 115 51 100 62C 97 68 92 70 86 70Z" fill="#b6ad9c" stroke="#1a1a1a" stroke-width="2.95652" stroke-linejoin="round" stroke-linecap="round"/></g><g transform="translate(241.39 327.29) scale(1.045)"><path d="M 22 70C 6 70 1 53 16 46C 12 29 33 18 46 27C 53 7 83 7 90 28C 109 30 115 51 100 62C 97 68 92 70 86 70Z" fill="#b6ad9c" stroke="#1a1a1a" stroke-width="3.25359" stroke-linejoin="round" stroke-linecap="round"/></g><g transform="translate(249.48 298.28) scale(0.94)"><path d="M 22 70C 6 70 1 53 16 46C 12 29 33 18 46 27C 53 7 83 7 90 28C 109 30 115 51 100 62C 97 68 92 70 86 70Z" fill="#b6ad9c" stroke="#1a1a1a" stroke-width="3.61702" stroke-linejoin="round" stroke-linecap="round"/></g><g transform="translate(257.57 269.27) scale(0.835)"><path d="M 22 70C 6 70 1 53 16 46C 12 29 33 18 46 27C 53 7 83 7 90 28C 109 30 115 51 100 62C 97 68 92 70 86 70Z" fill="#b6ad9c" stroke="#1a1a1a" stroke-width="4.07186" stroke-linejoin="round" stroke-linecap="round"/></g><g transform="translate(265.66 240.26) scale(0.73)"><path d="M 22 70C 6 70 1 53 16 46C 12 29 33 18 46 27C 53 7 83 7 90 28C 109 30 115 51 100 62C 97 68 92 70 86 70Z" fill="#b6ad9c" stroke="#1a1a1a" stroke-width="4.65753" stroke-linejoin="round" stroke-linecap="round"/></g><g transform="translate(258.24 228.64) scale(0.72)"><path d="M 22 70C 6 70 1 53 16 46C 12 29 33 18 46 27C 53 7 83 7 90 28C 109 30 115 51 100 62C 97 68 92 70 86 70Z" fill="#b6ad9c" stroke="#1a1a1a" stroke-width="4.72222" stroke-linejoin="round" stroke-linecap="round"/></g><g transform="translate(529.3 356.3) scale(1.15)"><path d="M 22 70C 6 70 1 53 16 46C 12 29 33 18 46 27C 53 7 83 7 90 28C 109 30 115 51 100 62C 97 68 92 70 86 70Z" fill="#b6ad9c" stroke="#1a1a1a" stroke-width="2.95652" stroke-linejoin="round" stroke-linecap="round"/></g><g transform="translate(537.39 327.29) scale(1.045)"><path d="M 22 70C 6 70 1 53 16 46C 12 29 33 18 46 27C 53 7 83 7 90 28C 109 30 115 51 100 62C 97 68 92 70 86 70Z" fill="#b6ad9c" stroke="#1a1a1a" stroke-width="3.25359" stroke-linejoin="round" stroke-linecap="round"/></g><g transform="translate(545.48 298.28) scale(0.94)"><path d="M 22 70C 6 70 1 53 16 46C 12 29 33 18 46 27C 53 7 83 7 90 28C 109 30 115 51 100 62C 97 68 92 70 86 70Z" fill="#b6ad9c" stroke="#1a1a1a" stroke-width="3.61702" stroke-linejoin="round" stroke-linecap="round"/></g><g transform="translate(553.57 269.27) scale(0.835)"><path d="M 22 70C 6 70 1 53 16 46C 12 29 33 18 46 27C 53 7 83 7 90 28C 109 30 115 51 100 62C 97 68 92 70 86 70Z" fill="#b6ad9c" stroke="#1a1a1a" stroke-width="4.07186" stroke-linejoin="round" stroke-linecap="round"/></g><g transform="translate(561.66 240.26) scale(0.73)"><path d="M 22 70C 6 70 1 53 16 46C 12 29 33 18 46 27C 53 7 83 7 90 28C 109 30 115 51 100 62C 97 68 92 70 86 70Z" fill="#b6ad9c" stroke="#1a1a1a" stroke-width="4.65753" stroke-linejoin="round" stroke-linecap="round"/></g><g transform="translate(554.24 228.64) scale(0.72)"><path d="M 22 70C 6 70 1 53 16 46C 12 29 33 18 46 27C 53 7 83 7 90 28C 109 30 115 51 100 62C 97 68 92 70 86 70Z" fill="#b6ad9c" stroke="#1a1a1a" stroke-width="4.72222" stroke-linejoin="round" stroke-linecap="round"/></g><line x1="236" y1="408" x2="224" y2="442" stroke="#2d6ca8" stroke-width="3.2" stroke-linecap="round" opacity="0.9"/><line x1="252" y1="408" x2="240" y2="442" stroke="#2d6ca8" stroke-width="3.2" stroke-linecap="round" opacity="0.9"/><line x1="268" y1="408" x2="256" y2="442" stroke="#2d6ca8" stroke-width="3.2" stroke-linecap="round" opacity="0.9"/><line x1="284" y1="408" x2="272" y2="442" stroke="#2d6ca8" stroke-width="3.2" stroke-linecap="round" opacity="0.9"/><line x1="300" y1="408" x2="288" y2="442" stroke="#2d6ca8" stroke-width="3.2" stroke-linecap="round" opacity="0.9"/><line x1="316" y1="408" x2="304" y2="442" stroke="#2d6ca8" stroke-width="3.2" stroke-linecap="round" opacity="0.9"/><line x1="332" y1="408" x2="320" y2="442" stroke="#2d6ca8" stroke-width="3.2" stroke-linecap="round" opacity="0.9"/><line x1="568.75" y1="408" x2="556.75" y2="442" stroke="#2d6ca8" stroke-width="3.2" stroke-linecap="round" opacity="0.9"/><line x1="586.25" y1="408" x2="574.25" y2="442" stroke="#2d6ca8" stroke-width="3.2" stroke-linecap="round" opacity="0.9"/><line x1="603.75" y1="408" x2="591.75" y2="442" stroke="#2d6ca8" stroke-width="3.2" stroke-linecap="round" opacity="0.9"/><line x1="621.25" y1="408" x2="609.25" y2="442" stroke="#2d6ca8" stroke-width="3.2" stroke-linecap="round" opacity="0.9"/><line x1="638.75" y1="408" x2="626.75" y2="442" stroke="#2d6ca8" stroke-width="3.2" stroke-linecap="round" opacity="0.9"/><line x1="656.25" y1="408" x2="644.25" y2="442" stroke="#2d6ca8" stroke-width="3.2" stroke-linecap="round" opacity="0.9"/><line x1="673.75" y1="408" x2="661.75" y2="442" stroke="#2d6ca8" stroke-width="3.2" stroke-linecap="round" opacity="0.9"/><line x1="691.25" y1="408" x2="679.25" y2="442" stroke="#2d6ca8" stroke-width="3.2" stroke-linecap="round" opacity="0.9"/><line x1="24" y1="448" x2="876" y2="448" stroke="#1a1a1a" stroke-width="6" stroke-linecap="round"/><line x1="34" y1="448" x2="21" y2="472" stroke="#5a5044" stroke-width="2.4" stroke-linecap="round" opacity="0.45"/><line x1="61" y1="448" x2="48" y2="472" stroke="#5a5044" stroke-width="2.4" stroke-linecap="round" opacity="0.45"/><line x1="88" y1="448" x2="75" y2="472" stroke="#5a5044" stroke-width="2.4" stroke-linecap="round" opacity="0.45"/><line x1="115" y1="448" x2="102" y2="472" stroke="#5a5044" stroke-width="2.4" stroke-linecap="round" opacity="0.45"/><line x1="142" y1="448" x2="129" y2="472" stroke="#5a5044" stroke-width="2.4" stroke-linecap="round" opacity="0.45"/><line x1="169" y1="448" x2="156" y2="472" stroke="#5a5044" stroke-width="2.4" stroke-linecap="round" opacity="0.45"/><line x1="196" y1="448" x2="183" y2="472" stroke="#5a5044" stroke-width="2.4" stroke-linecap="round" opacity="0.45"/><line x1="223" y1="448" x2="210" y2="472" stroke="#5a5044" stroke-width="2.4" stroke-linecap="round" opacity="0.45"/><line x1="250" y1="448" x2="237" y2="472" stroke="#5a5044" stroke-width="2.4" stroke-linecap="round" opacity="0.45"/><line x1="277" y1="448" x2="264" y2="472" stroke="#5a5044" stroke-width="2.4" stroke-linecap="round" opacity="0.45"/><line x1="304" y1="448" x2="291" y2="472" stroke="#5a5044" stroke-width="2.4" stroke-linecap="round" opacity="0.45"/><line x1="331" y1="448" x2="318" y2="472" stroke="#5a5044" stroke-width="2.4" stroke-linecap="round" opacity="0.45"/><line x1="358" y1="448" x2="345" y2="472" stroke="#5a5044" stroke-width="2.4" stroke-linecap="round" opacity="0.45"/><line x1="385" y1="448" x2="372" y2="472" stroke="#5a5044" stroke-width="2.4" stroke-linecap="round" opacity="0.45"/><line x1="412" y1="448" x2="399" y2="472" stroke="#5a5044" stroke-width="2.4" stroke-linecap="round" opacity="0.45"/><line x1="439" y1="448" x2="426" y2="472" stroke="#5a5044" stroke-width="2.4" stroke-linecap="round" opacity="0.45"/><line x1="466" y1="448" x2="453" y2="472" stroke="#5a5044" stroke-width="2.4" stroke-linecap="round" opacity="0.45"/><line x1="493" y1="448" x2="480" y2="472" stroke="#5a5044" stroke-width="2.4" stroke-linecap="round" opacity="0.45"/><line x1="520" y1="448" x2="507" y2="472" stroke="#5a5044" stroke-width="2.4" stroke-linecap="round" opacity="0.45"/><line x1="547" y1="448" x2="534" y2="472" stroke="#5a5044" stroke-width="2.4" stroke-linecap="round" opacity="0.45"/><line x1="574" y1="448" x2="561" y2="472" stroke="#5a5044" stroke-width="2.4" stroke-linecap="round" opacity="0.45"/><line x1="601" y1="448" x2="588" y2="472" stroke="#5a5044" stroke-width="2.4" stroke-linecap="round" opacity="0.45"/><line x1="628" y1="448" x2="615" y2="472" stroke="#5a5044" stroke-width="2.4" stroke-linecap="round" opacity="0.45"/><line x1="655" y1="448" x2="642" y2="472" stroke="#5a5044" stroke-width="2.4" stroke-linecap="round" opacity="0.45"/><line x1="682" y1="448" x2="669" y2="472" stroke="#5a5044" stroke-width="2.4" stroke-linecap="round" opacity="0.45"/><line x1="709" y1="448" x2="696" y2="472" stroke="#5a5044" stroke-width="2.4" stroke-linecap="round" opacity="0.45"/><line x1="736" y1="448" x2="723" y2="472" stroke="#5a5044" stroke-width="2.4" stroke-linecap="round" opacity="0.45"/><line x1="763" y1="448" x2="750" y2="472" stroke="#5a5044" stroke-width="2.4" stroke-linecap="round" opacity="0.45"/><line x1="790" y1="448" x2="777" y2="472" stroke="#5a5044" stroke-width="2.4" stroke-linecap="round" opacity="0.45"/><line x1="817" y1="448" x2="804" y2="472" stroke="#5a5044" stroke-width="2.4" stroke-linecap="round" opacity="0.45"/><line x1="844" y1="448" x2="831" y2="472" stroke="#5a5044" stroke-width="2.4" stroke-linecap="round" opacity="0.45"/><rect x="92" y="381.6" width="80" height="27.2" fill="#d7e2ee" stroke="#2d6ca8" stroke-width="3"/><text x="132" y="406.6" font-size="20" text-anchor="middle" font-weight="800" fill="#2d6ca8">冷气团</text><rect x="762" y="381.6" width="80" height="27.2" fill="#e3ecf4" stroke="#2d6ca8" stroke-width="3"/><text x="802" y="406.6" font-size="20" text-anchor="middle" font-weight="800" fill="#2d6ca8">冷气团</text><rect x="360" y="70.52" width="172" height="25.84" fill="#f4e2de" stroke="#cc3a26" stroke-width="3"/><text x="446" y="94.27" font-size="19" text-anchor="middle" font-weight="800" fill="#cc3a26">暖气团被抬离地面</text><text x="450" y="44" font-size="27" text-anchor="middle" font-weight="900" fill="#1a1a1a">某锋面剖面示意</text>
</svg>
