<svg xmlns="http://www.w3.org/2000/svg" viewBox="0 0 900 620" width="900" height="620" font-family="'Arial Black','Franklin Gothic Heavy','Microsoft YaHei','PingFang SC',sans-serif">
<rect x="0" y="0" width="900" height="620" fill="#f2e8d5"/>
<rect x="5" y="5" width="890" height="610" fill="none" stroke="#1a1a1a" stroke-width="4"/>
<rect x="30" y="170" width="840" height="300" fill="#a9c9de" opacity="0.15"/><line x1="30" y1="170" x2="870" y2="170" stroke="#5a5044" stroke-width="2.4" stroke-linecap="round" stroke-dasharray="12 8" opacity="0.6"/><text x="862" y="158" font-size="17" text-anchor="end" font-weight="700" fill="#5a5044">大气上界</text><circle cx="72" cy="96" r="34" fill="#d4a843" stroke="#1a1a1a" stroke-width="3.2"/><line x1="112" y1="96" x2="142" y2="96" stroke="#1a1a1a" stroke-width="6" stroke-linecap="round"/><line x1="100.284" y1="124.284" x2="121.497" y2="145.497" stroke="#1a1a1a" stroke-width="6" stroke-linecap="round"/><line x1="72" y1="136" x2="72" y2="166" stroke="#1a1a1a" stroke-width="6" stroke-linecap="round"/><line x1="43.7157" y1="124.284" x2="22.5025" y2="145.497" stroke="#1a1a1a" stroke-width="6" stroke-linecap="round"/><line x1="32" y1="96" x2="2" y2="96" stroke="#1a1a1a" stroke-width="6" stroke-linecap="round"/><line x1="43.7157" y1="67.7157" x2="22.5025" y2="46.5025" stroke="#1a1a1a" stroke-width="6" stroke-linecap="round"/><line x1="72" y1="56" x2="72" y2="26" stroke="#1a1a1a" stroke-width="6" stroke-linecap="round"/><line x1="100.284" y1="67.7157" x2="121.497" y2="46.5025" stroke="#1a1a1a" stroke-width="6" stroke-linecap="round"/><line x1="128" y1="132" x2="248.362" y2="443.412" stroke="#d4a843" stroke-width="7" stroke-linecap="round"/><path d="M 254 458 L 240.116 446.599 L 256.607 440.225 Z" fill="#d4a843"/><rect x="191" y="208.52" width="134" height="25.84" fill="#f6eccd" stroke="#8b4513" stroke-width="3"/><text x="258" y="232.27" font-size="19" text-anchor="middle" font-weight="800" fill="#8b4513">太阳短波辐射</text><line x1="196" y1="220" x2="164" y2="222" stroke="#5a5044" stroke-width="2.2" stroke-linecap="round" stroke-dasharray="6 6"/><line x1="312" y1="340" x2="392.264" y2="221.428" stroke="#2d6ca8" stroke-width="6" stroke-linecap="round"/><path d="M 400 210 L 398.723 225.8 L 385.805 217.055 Z" fill="#2d6ca8"/><rect x="344" y="160.52" width="248" height="25.84" fill="#e6eef6" stroke="#2d6ca8" stroke-width="3"/><text x="468" y="184.27" font-size="19" text-anchor="middle" font-weight="800" fill="#2d6ca8">大气对太阳辐射的削弱作用</text><line x1="540" y1="460" x2="540" y2="289.64" stroke="#8b4513" stroke-width="7" stroke-linecap="round"/><path d="M 540 274 L 548.84 289.64 L 531.16 289.64 Z" fill="#8b4513"/><rect x="454" y="230.52" width="172" height="25.84" fill="#f1e0d3" stroke="#8b4513" stroke-width="3"/><text x="540" y="254.27" font-size="19" text-anchor="middle" font-weight="800" fill="#8b4513">地面辐射（长波）</text><rect x="571.5" y="324.52" width="229" height="25.84" fill="#efe7d8" stroke="#1a1a1a" stroke-width="3"/><text x="686" y="348.27" font-size="19" text-anchor="middle" font-weight="800" fill="#1a1a1a">大气吸收大部分地面辐射</text><line x1="800" y1="316" x2="800" y2="440.36" stroke="#cc0000" stroke-width="7" stroke-linecap="round"/><path d="M 800 456 L 791.16 440.36 L 808.84 440.36 Z" fill="#cc0000"/><rect x="642.5" y="274.52" width="115" height="25.84" fill="#f4e2de" stroke="#cc0000" stroke-width="3"/><text x="700" y="298.27" font-size="19" text-anchor="middle" font-weight="800" fill="#cc0000">大气逆辐射</text><line x1="648" y1="166" x2="648" y2="97.8" stroke="#6b4f9e" stroke-width="6" stroke-linecap="round"/><path d="M 648 84 L 655.8 97.8 L 640.2 97.8 Z" fill="#6b4f9e"/><rect x="678" y="55.44" width="128" height="24.48" fill="#e6e0f2" stroke="#6b4f9e" stroke-width="3"/><text x="742" y="77.94" font-size="18" text-anchor="middle" font-weight="800" fill="#6b4f9e">射向宇宙空间</text><line x1="30" y1="470" x2="870" y2="470" stroke="#1a1a1a" stroke-width="6" stroke-linecap="round"/><line x1="40" y1="470" x2="27" y2="494" stroke="#5a5044" stroke-width="2.4" stroke-linecap="round" opacity="0.45"/><line x1="67" y1="470" x2="54" y2="494" stroke="#5a5044" stroke-width="2.4" stroke-linecap="round" opacity="0.45"/><line x1="94" y1="470" x2="81" y2="494" stroke="#5a5044" stroke-width="2.4" stroke-linecap="round" opacity="0.45"/><line x1="121" y1="470" x2="108" y2="494" stroke="#5a5044" stroke-width="2.4" stroke-linecap="round" opacity="0.45"/><line x1="148" y1="470" x2="135" y2="494" stroke="#5a5044" stroke-width="2.4" stroke-linecap="round" opacity="0.45"/><line x1="175" y1="470" x2="162" y2="494" stroke="#5a5044" stroke-width="2.4" stroke-linecap="round" opacity="0.45"/><line x1="202" y1="470" x2="189" y2="494" stroke="#5a5044" stroke-width="2.4" stroke-linecap="round" opacity="0.45"/><line x1="229" y1="470" x2="216" y2="494" stroke="#5a5044" stroke-width="2.4" stroke-linecap="round" opacity="0.45"/><line x1="256" y1="470" x2="243" y2="494" stroke="#5a5044" stroke-width="2.4" stroke-linecap="round" opacity="0.45"/><line x1="283" y1="470" x2="270" y2="494" stroke="#5a5044" stroke-width="2.4" stroke-linecap="round" opacity="0.45"/><line x1="310" y1="470" x2="297" y2="494" stroke="#5a5044" stroke-width="2.4" stroke-linecap="round" opacity="0.45"/><line x1="337" y1="470" x2="324" y2="494" stroke="#5a5044" stroke-width="2.4" stroke-linecap="round" opacity="0.45"/><line x1="364" y1="470" x2="351" y2="494" stroke="#5a5044" stroke-width="2.4" stroke-linecap="round" opacity="0.45"/><line x1="391" y1="470" x2="378" y2="494" stroke="#5a5044" stroke-width="2.4" stroke-linecap="round" opacity="0.45"/><line x1="418" y1="470" x2="405" y2="494" stroke="#5a5044" stroke-width="2.4" stroke-linecap="round" opacity="0.45"/><line x1="445" y1="470" x2="432" y2="494" stroke="#5a5044" stroke-width="2.4" stroke-linecap="round" opacity="0.45"/><line x1="472" y1="470" x2="459" y2="494" stroke="#5a5044" stroke-width="2.4" stroke-linecap="round" opacity="0.45"/><line x1="499" y1="470" x2="486" y2="494" stroke="#5a5044" stroke-width="2.4" stroke-linecap="round" opacity="0.45"/><line x1="526" y1="470" x2="513" y2="494" stroke="#5a5044" stroke-width="2.4" stroke-linecap="round" opacity="0.45"/><line x1="553" y1="470" x2="540" y2="494" stroke="#5a5044" stroke-width="2.4" stroke-linecap="round" opacity="0.45"/><line x1="580" y1="470" x2="567" y2="494" stroke="#5a5044" stroke-width="2.4" stroke-linecap="round" opacity="0.45"/><line x1="607" y1="470" x2="594" y2="494" stroke="#5a5044" stroke-width="2.4" stroke-linecap="round" opacity="0.45"/><line x1="634" y1="470" x2="621" y2="494" stroke="#5a5044" stroke-width="2.4" stroke-linecap="round" opacity="0.45"/><line x1="661" y1="470" x2="648" y2="494" stroke="#5a5044" stroke-width="2.4" stroke-linecap="round" opacity="0.45"/><line x1="688" y1="470" x2="675" y2="494" stroke="#5a5044" stroke-width="2.4" stroke-linecap="round" opacity="0.45"/><line x1="715" y1="470" x2="702" y2="494" stroke="#5a5044" stroke-width="2.4" stroke-linecap="round" opacity="0.45"/><line x1="742" y1="470" x2="729" y2="494" stroke="#5a5044" stroke-width="2.4" stroke-linecap="round" opacity="0.45"/><line x1="769" y1="470" x2="756" y2="494" stroke="#5a5044" stroke-width="2.4" stroke-linecap="round" opacity="0.45"/><line x1="796" y1="470" x2="783" y2="494" stroke="#5a5044" stroke-width="2.4" stroke-linecap="round" opacity="0.45"/><line x1="823" y1="470" x2="810" y2="494" stroke="#5a5044" stroke-width="2.4" stroke-linecap="round" opacity="0.45"/><line x1="850" y1="470" x2="837" y2="494" stroke="#5a5044" stroke-width="2.4" stroke-linecap="round" opacity="0.45"/><rect x="137.5" y="502.52" width="153" height="25.84" fill="#f1e0d3" stroke="#8b4513" stroke-width="3"/><text x="214" y="526.27" font-size="19" text-anchor="middle" font-weight="800" fill="#8b4513">地面吸收、增温</text><rect x="300" y="555.6" width="440" height="27.2" fill="#f4e2de" stroke="#cc0000" stroke-width="3"/><text x="520" y="580.6" font-size="20" text-anchor="middle" font-weight="800" fill="#cc0000">大气逆辐射把热量还给地面，对地面起保温作用</text><text x="450" y="42" font-size="27" text-anchor="middle" font-weight="900" fill="#1a1a1a">大气受热过程示意</text><text x="450" y="552" font-size="18" text-anchor="middle" font-weight="700" fill="#5a5044">太阳短波辐射 → 地面吸收增温 → 地面长波辐射 → 大气吸收 → 大气逆辐射</text>
</svg>
