<svg xmlns="http://www.w3.org/2000/svg" viewBox="0 0 900 520" width="900" height="520" font-family="'Arial Black','Franklin Gothic Heavy','Microsoft YaHei','PingFang SC',sans-serif">
<rect x="0" y="0" width="900" height="520" fill="#f2e8d5"/>
<rect x="5" y="5" width="890" height="510" fill="none" stroke="#1a1a1a" stroke-width="4"/>
<rect x="24" y="66" width="390" height="340" fill="#fbf6ea" stroke="#1a1a1a" stroke-width="3"/><rect x="179.33" y="82.84" width="79.34" height="31.28" fill="#fbf6ea" stroke="#1a1a1a" stroke-width="3"/><text x="219" y="111.59" font-size="23" text-anchor="middle" font-weight="800" fill="#1a1a1a">图 甲</text><path d="M50 146C68.72 143.48 111.88 129.48 154 132C196.12 134.52 241.52 157.48 284 160C326.48 162.52 370.92 148.52 390 146" fill="none" stroke="#cc0000" stroke-width="3.6" stroke-linejoin="round" stroke-linecap="round"/><text x="44" y="140" font-size="17" text-anchor="start" font-weight="800" fill="#cc0000">22</text><text x="396" y="176" font-size="17" text-anchor="end" font-weight="800" fill="#cc0000">22</text><path d="M50 204C68.72 201.48 111.88 187.48 154 190C196.12 192.52 241.52 215.48 284 218C326.48 220.52 370.92 206.52 390 204" fill="none" stroke="#cc0000" stroke-width="3.6" stroke-linejoin="round" stroke-linecap="round"/><text x="44" y="198" font-size="17" text-anchor="start" font-weight="800" fill="#cc0000">20</text><text x="396" y="234" font-size="17" text-anchor="end" font-weight="800" fill="#cc0000">20</text><path d="M50 262C68.72 259.48 111.88 245.48 154 248C196.12 250.52 241.52 273.48 284 276C326.48 278.52 370.92 264.52 390 262" fill="none" stroke="#cc0000" stroke-width="3.6" stroke-linejoin="round" stroke-linecap="round"/><text x="44" y="256" font-size="17" text-anchor="start" font-weight="800" fill="#cc0000">18</text><text x="396" y="292" font-size="17" text-anchor="end" font-weight="800" fill="#cc0000">18</text><path d="M50 320C68.72 317.48 111.88 303.48 154 306C196.12 308.52 241.52 331.48 284 334C326.48 336.52 370.92 322.52 390 320" fill="none" stroke="#cc0000" stroke-width="3.6" stroke-linejoin="round" stroke-linecap="round"/><text x="44" y="314" font-size="17" text-anchor="start" font-weight="800" fill="#cc0000">16</text><text x="396" y="350" font-size="17" text-anchor="end" font-weight="800" fill="#cc0000">16</text><path d="M50 378C68.72 375.48 111.88 361.48 154 364C196.12 366.52 241.52 389.48 284 392C326.48 394.52 370.92 380.52 390 378" fill="none" stroke="#cc0000" stroke-width="3.6" stroke-linejoin="round" stroke-linecap="round"/><text x="44" y="372" font-size="17" text-anchor="start" font-weight="800" fill="#cc0000">14</text><text x="396" y="408" font-size="17" text-anchor="end" font-weight="800" fill="#cc0000">14</text><text x="219" y="428" font-size="19" text-anchor="middle" font-weight="700" fill="#5a5044"></text><rect x="486" y="66" width="390" height="340" fill="#fbf6ea" stroke="#1a1a1a" stroke-width="3"/><rect x="641.33" y="82.84" width="79.34" height="31.28" fill="#fbf6ea" stroke="#1a1a1a" stroke-width="3"/><text x="681" y="111.59" font-size="23" text-anchor="middle" font-weight="800" fill="#1a1a1a">图 乙</text><path d="M512 146C530.72 143.48 573.88 129.48 616 132C658.12 134.52 703.52 157.48 746 160C788.48 162.52 832.92 148.52 852 146" fill="none" stroke="#cc0000" stroke-width="3.6" stroke-linejoin="round" stroke-linecap="round"/><text x="506" y="140" font-size="17" text-anchor="start" font-weight="800" fill="#cc0000">14</text><text x="858" y="176" font-size="17" text-anchor="end" font-weight="800" fill="#cc0000">14</text><path d="M512 204C530.72 201.48 573.88 187.48 616 190C658.12 192.52 703.52 215.48 746 218C788.48 220.52 832.92 206.52 852 204" fill="none" stroke="#cc0000" stroke-width="3.6" stroke-linejoin="round" stroke-linecap="round"/><text x="506" y="198" font-size="17" text-anchor="start" font-weight="800" fill="#cc0000">16</text><text x="858" y="234" font-size="17" text-anchor="end" font-weight="800" fill="#cc0000">16</text><path d="M512 262C530.72 259.48 573.88 245.48 616 248C658.12 250.52 703.52 273.48 746 276C788.48 278.52 832.92 264.52 852 262" fill="none" stroke="#cc0000" stroke-width="3.6" stroke-linejoin="round" stroke-linecap="round"/><text x="506" y="256" font-size="17" text-anchor="start" font-weight="800" fill="#cc0000">18</text><text x="858" y="292" font-size="17" text-anchor="end" font-weight="800" fill="#cc0000">18</text><path d="M512 320C530.72 317.48 573.88 303.48 616 306C658.12 308.52 703.52 331.48 746 334C788.48 336.52 832.92 322.52 852 320" fill="none" stroke="#cc0000" stroke-width="3.6" stroke-linejoin="round" stroke-linecap="round"/><text x="506" y="314" font-size="17" text-anchor="start" font-weight="800" fill="#cc0000">20</text><text x="858" y="350" font-size="17" text-anchor="end" font-weight="800" fill="#cc0000">20</text><path d="M512 378C530.72 375.48 573.88 361.48 616 364C658.12 366.52 703.52 389.48 746 392C788.48 394.52 832.92 380.52 852 378" fill="none" stroke="#cc0000" stroke-width="3.6" stroke-linejoin="round" stroke-linecap="round"/><text x="506" y="372" font-size="17" text-anchor="start" font-weight="800" fill="#cc0000">22</text><text x="858" y="408" font-size="17" text-anchor="end" font-weight="800" fill="#cc0000">22</text><text x="681" y="428" font-size="19" text-anchor="middle" font-weight="700" fill="#5a5044"></text><text x="450" y="40" font-size="25" text-anchor="middle" font-weight="900" fill="#1a1a1a">根据等温线数值变化判断南北半球</text><text x="450" y="480" font-size="18" text-anchor="middle" font-weight="700" fill="#5a5044">读图判断甲、乙两图分别位于哪个半球</text>
</svg>
