<svg xmlns="http://www.w3.org/2000/svg" viewBox="0 0 900 560" width="900" height="560" font-family="'Arial Black','Franklin Gothic Heavy','Microsoft YaHei','PingFang SC',sans-serif">
<rect x="0" y="0" width="900" height="560" fill="#f2e8d5"/>
<rect x="5" y="5" width="890" height="550" fill="none" stroke="#1a1a1a" stroke-width="4"/>
<rect x="24" y="400" width="406" height="84" fill="#a9c9de" stroke="#2d6ca8" stroke-width="3" opacity="0.55"/><path d="M44 420C61.28 418.38 102.92 409.38 140 411C177.08 412.62 203.2 429 250 429C296.8 429 373 414.24 400 411" fill="none" stroke="#2d6ca8" stroke-width="3.4" stroke-linejoin="round" stroke-linecap="round" opacity="0.7"/><path d="M44 438C61.28 436.38 102.92 427.38 140 429C177.08 430.62 203.2 447 250 447C296.8 447 373 432.24 400 429" fill="none" stroke="#2d6ca8" stroke-width="3.4" stroke-linejoin="round" stroke-linecap="round" opacity="0.7"/><path d="M44 456C61.28 454.38 102.92 445.38 140 447C177.08 448.62 203.2 465 250 465C296.8 465 373 450.24 400 447" fill="none" stroke="#2d6ca8" stroke-width="3.4" stroke-linejoin="round" stroke-linecap="round" opacity="0.7"/><path d="M44 474C61.28 472.38 102.92 463.38 140 465C177.08 466.62 203.2 483 250 483C296.8 483 373 468.24 400 465" fill="none" stroke="#2d6ca8" stroke-width="3.4" stroke-linejoin="round" stroke-linecap="round" opacity="0.7"/><path d="M 406 400 L 876 400 L 876 484 L 406 484 Z" fill="#dfc188" stroke="#1a1a1a" stroke-width="3" stroke-linejoin="round" stroke-linecap="round"/><path d="M 500 400 L 534 400 L 534 484 L 500 484 Z" fill="#c8b48d" stroke="#1a1a1a" stroke-width="2.4" stroke-linejoin="round" stroke-linecap="round"/><path d="M 610 400 L 644 400 L 644 484 L 610 484 Z" fill="#c8b48d" stroke="#1a1a1a" stroke-width="2.4" stroke-linejoin="round" stroke-linecap="round"/><path d="M 720 400 L 754 400 L 754 484 L 720 484 Z" fill="#c8b48d" stroke="#1a1a1a" stroke-width="2.4" stroke-linejoin="round" stroke-linecap="round"/><line x1="430" y1="304" x2="430" y2="484" stroke="#1a1a1a" stroke-width="4" stroke-linecap="round" stroke-dasharray="12 8"/><text x="422" y="516" font-size="21" text-anchor="end" font-weight="900" fill="#2d6ca8">海洋</text><text x="438" y="516" font-size="21" text-anchor="start" font-weight="900" fill="#8b4513">陆地</text><circle cx="456" cy="82" r="32" fill="#fbf6ea" stroke="#1a1a1a" stroke-width="4"/><text x="456" y="90" font-size="22" text-anchor="middle" font-weight="800" fill="#5a5044">月</text><line x1="190" y1="300" x2="190" y2="168.56" stroke="#cc3a26" stroke-width="7" stroke-linecap="round"/><path d="M 190 152 L 199.36 168.56 L 180.64 168.56 Z" fill="#cc3a26"/><line x1="690" y1="168" x2="690" y2="283.44" stroke="#2d6ca8" stroke-width="7" stroke-linecap="round"/><path d="M 690 300 L 680.64 283.44 L 699.36 283.44 Z" fill="#2d6ca8"/><line x1="646" y1="342" x2="246.72" y2="342" stroke="#6b4f9e" stroke-width="6" stroke-linecap="round"/><path d="M 232 342 L 246.72 333.68 L 246.72 350.32 Z" fill="#6b4f9e"/><line x1="232" y1="140" x2="631.28" y2="140" stroke="#6b4f9e" stroke-width="6" stroke-linecap="round"/><path d="M 646 140 L 631.28 148.32 L 631.28 131.68 Z" fill="#6b4f9e"/><rect x="407" y="358.84" width="66" height="31.28" fill="#f4e2de" stroke="#cc3a26" stroke-width="3"/><text x="440" y="387.59" font-size="23" text-anchor="middle" font-weight="800" fill="#cc3a26">陆风</text><text x="440" y="44" font-size="25" text-anchor="middle" font-weight="900" fill="#1a1a1a">海陆风——夜晚（陆风）</text>
</svg>
