<svg xmlns="http://www.w3.org/2000/svg" viewBox="0 0 900 580" width="900" height="580" font-family="'Arial Black','Franklin Gothic Heavy','Microsoft YaHei','PingFang SC',sans-serif">
<rect x="0" y="0" width="900" height="580" fill="#f2e8d5"/>
<rect x="5" y="5" width="890" height="570" fill="none" stroke="#1a1a1a" stroke-width="4"/>
<rect x="40" y="150" width="500" height="280" fill="#dfc188" stroke="#1a1a1a" stroke-width="3"/><rect x="540" y="150" width="320" height="280" fill="#a9c9de" stroke="#2d6ca8" stroke-width="3" opacity="0.5"/><path d="M560 210C578 208.2 624 198.2 660 200C696 201.8 726.52 219.28 760 220C793.48 220.72 830.52 206.88 846 204" fill="none" stroke="#2d6ca8" stroke-width="3.4" stroke-linejoin="round" stroke-linecap="round" opacity="0.7"/><path d="M560 280C578 278.2 624 268.2 660 270C696 271.8 726.52 289.28 760 290C793.48 290.72 830.52 276.88 846 274" fill="none" stroke="#2d6ca8" stroke-width="3.4" stroke-linejoin="round" stroke-linecap="round" opacity="0.7"/><path d="M560 350C578 348.2 624 338.2 660 340C696 341.8 726.52 359.28 760 360C793.48 360.72 830.52 346.88 846 344" fill="none" stroke="#2d6ca8" stroke-width="3.4" stroke-linejoin="round" stroke-linecap="round" opacity="0.7"/><text x="290" y="412" font-size="23" text-anchor="middle" font-weight="900" fill="#8b4513">亚欧大陆</text><text x="700" y="412" font-size="23" text-anchor="middle" font-weight="900" fill="#2d6ca8">海洋</text><rect x="175" y="180.68" width="230" height="28.56" fill="#f4e2de" stroke="#cc0000" stroke-width="3"/><text x="290" y="206.93" font-size="21" text-anchor="middle" font-weight="800" fill="#cc0000">亚洲低压（印度低压）</text><rect x="637.5" y="180.68" width="125" height="28.56" fill="#e6eef6" stroke="#2d6ca8" stroke-width="3"/><text x="700" y="206.93" font-size="21" text-anchor="middle" font-weight="800" fill="#2d6ca8">夏威夷高压</text><line x1="760" y1="400" x2="318.707" y2="217.727" stroke="#6b4f9e" stroke-width="8" stroke-linecap="round"/><path d="M 300 210 L 323.074 207.153 L 314.34 228.3 Z" fill="#6b4f9e"/><line x1="880" y1="496" x2="438.707" y2="313.727" stroke="#6b4f9e" stroke-width="8" stroke-linecap="round"/><path d="M 420 306 L 443.074 303.153 L 434.34 324.3 Z" fill="#6b4f9e"/><text x="450" y="46" font-size="26" text-anchor="middle" font-weight="900" fill="#1a1a1a">东亚季风——夏季</text><text x="450" y="500" font-size="19" text-anchor="middle" font-weight="700" fill="#5a5044">箭头表示此时盛行风向；夏季风带来温暖湿润的气流</text><text x="450" y="540" font-size="16" text-anchor="middle" font-weight="700" fill="#5a5044">示意图：仅表示海陆相对位置，不代表真实政区</text>
</svg>
