<svg xmlns="http://www.w3.org/2000/svg" viewBox="0 0 900 580" width="900" height="580" font-family="'Arial Black','Franklin Gothic Heavy','Microsoft YaHei','PingFang SC',sans-serif">
<rect x="0" y="0" width="900" height="580" fill="#f2e8d5"/>
<rect x="5" y="5" width="890" height="570" fill="none" stroke="#1a1a1a" stroke-width="4"/>
<rect x="40" y="110" width="820" height="180" fill="#dfc188" stroke="#1a1a1a" stroke-width="3"/><text x="450" y="216" font-size="23" text-anchor="middle" font-weight="900" fill="#8b4513">亚欧大陆</text><rect x="40" y="320" width="820" height="170" fill="#a9c9de" stroke="#2d6ca8" stroke-width="3" opacity="0.5"/><path d="M70 380C107.8 378.2 202.6 368.2 280 370C357.4 371.8 401 389.28 500 390C599 390.72 770.6 376.88 830 374" fill="none" stroke="#2d6ca8" stroke-width="3.4" stroke-linejoin="round" stroke-linecap="round" opacity="0.7"/><path d="M70 456C107.8 454.2 202.6 444.2 280 446C357.4 447.8 401 465.28 500 466C599 466.72 770.6 452.88 830 450" fill="none" stroke="#2d6ca8" stroke-width="3.4" stroke-linejoin="round" stroke-linecap="round" opacity="0.7"/><text x="450" y="470" font-size="23" text-anchor="middle" font-weight="900" fill="#2d6ca8">印度洋</text><rect x="315" y="156.68" width="230" height="28.56" fill="#f4e2de" stroke="#cc0000" stroke-width="3"/><text x="430" y="182.93" font-size="21" text-anchor="middle" font-weight="800" fill="#cc0000">亚洲低压（印度低压）</text><line x1="300" y1="420" x2="544.076" y2="228.494" stroke="#6b4f9e" stroke-width="8" stroke-linecap="round"/><path d="M 560 216 L 551.138 237.494 L 537.015 219.494 Z" fill="#6b4f9e"/><line x1="430" y1="420" x2="674.076" y2="228.494" stroke="#6b4f9e" stroke-width="8" stroke-linecap="round"/><path d="M 690 216 L 681.138 237.494 L 667.015 219.494 Z" fill="#6b4f9e"/><text x="450" y="46" font-size="26" text-anchor="middle" font-weight="900" fill="#1a1a1a">南亚季风——夏季</text><text x="450" y="530" font-size="19" text-anchor="middle" font-weight="700" fill="#5a5044">箭头表示此时盛行风向；该季风由东南信风越过赤道偏转形成</text>
</svg>
