<svg xmlns="http://www.w3.org/2000/svg" viewBox="0 0 360 360" width="360" height="360" font-family="'Arial Black','Franklin Gothic Heavy','Microsoft YaHei','PingFang SC',sans-serif">
<rect x="0" y="0" width="360" height="360" fill="#f2e8d5"/>
<rect x="5" y="5" width="350" height="350" fill="none" stroke="#1a1a1a" stroke-width="4"/>
<g transform="translate(180 176) scale(1.35)"><path d="M 0 0C 0 -34 -46 -40 -58 -14C -66 4 -50 26 -28 22C -14 19 -10 6 -18 0C -24 -5 -33 -1 -33 8" fill="none" stroke="#1a1a1a" stroke-width="6.4" stroke-linejoin="round" stroke-linecap="round"/><path d="M 0 0C 0 34 46 40 58 14C 66 -4 50 -26 28 -22C 14 -19 10 -6 18 0C 24 5 33 1 33 -8" fill="none" stroke="#1a1a1a" stroke-width="6.4" stroke-linejoin="round" stroke-linecap="round"/></g>
</svg>
