<svg xmlns="http://www.w3.org/2000/svg" viewBox="0 0 930 430" width="930" height="430" font-family="'Arial Black','Franklin Gothic Heavy','Microsoft YaHei','PingFang SC',sans-serif">
<rect x="0" y="0" width="930" height="430" fill="#f2e8d5"/>
<rect x="5" y="5" width="920" height="420" fill="none" stroke="#1a1a1a" stroke-width="4"/>
<rect x="16" y="66" width="290" height="300" fill="#fbf6ea" stroke="#1a1a1a" stroke-width="3"/><rect x="128" y="86.84" width="66" height="31.28" fill="#fbf6ea" stroke="#1a1a1a" stroke-width="3"/><text x="161" y="115.59" font-size="23" text-anchor="middle" font-weight="800" fill="#1a1a1a">吸收</text><rect x="320" y="66" width="290" height="300" fill="#fbf6ea" stroke="#1a1a1a" stroke-width="3"/><rect x="432" y="86.84" width="66" height="31.28" fill="#fbf6ea" stroke="#1a1a1a" stroke-width="3"/><text x="465" y="115.59" font-size="23" text-anchor="middle" font-weight="800" fill="#1a1a1a">反射</text><rect x="624" y="66" width="290" height="300" fill="#fbf6ea" stroke="#1a1a1a" stroke-width="3"/><rect x="736" y="86.84" width="66" height="31.28" fill="#fbf6ea" stroke="#1a1a1a" stroke-width="3"/><text x="769" y="115.59" font-size="23" text-anchor="middle" font-weight="800" fill="#1a1a1a">散射</text><text x="161" y="176" font-size="19" text-anchor="middle" font-weight="800" fill="#2d6ca8">臭氧吸收紫外线</text><text x="161" y="210" font-size="19" text-anchor="middle" font-weight="800" fill="#2d6ca8">水汽、二氧化碳</text><text x="161" y="240" font-size="19" text-anchor="middle" font-weight="800" fill="#2d6ca8">吸收红外线</text><rect x="50" y="268" width="222" height="24" fill="#6b4f9e" stroke="#6b4f9e" stroke-width="2" opacity="0.24"/><text x="161" y="285" font-size="15" text-anchor="middle" font-weight="700" fill="#6b4f9e">大气层</text><line x1="68" y1="320" x2="230.053" y2="312.549" stroke="#d4a843" stroke-width="5" stroke-linecap="round"/><path d="M 242 312 L 230.363 319.302 L 229.742 305.796 Z" fill="#d4a843"/><text x="161" y="348" font-size="18" text-anchor="middle" font-weight="700" fill="#5a5044">有选择性</text><g transform="translate(410.48 160.28) scale(0.94)"><path d="M 22 70C 6 70 1 53 16 46C 12 29 33 18 46 27C 53 7 83 7 90 28C 109 30 115 51 100 62C 97 68 92 70 86 70Z" fill="#cfc7b6" stroke="#1a1a1a" stroke-width="3.61702" stroke-linejoin="round" stroke-linecap="round"/></g><line x1="360" y1="300" x2="427.431" y2="234.343" stroke="#d4a843" stroke-width="5" stroke-linecap="round"/><path d="M 436 226 L 432.147 239.187 L 422.715 229.5 Z" fill="#d4a843"/><line x1="496" y1="214" x2="561.543" y2="148.457" stroke="#d4a843" stroke-width="5" stroke-linecap="round"/><path d="M 570 140 L 566.323 153.237 L 556.763 143.677 Z" fill="#d4a843"/><text x="465" y="336" font-size="19" text-anchor="middle" font-weight="800" fill="#2d6ca8">云层、尘埃反射</text><text x="465" y="348" font-size="18" text-anchor="middle" font-weight="700" fill="#5a5044">无选择性</text><line x1="658" y1="296" x2="739.061" y2="223.946" stroke="#d4a843" stroke-width="5" stroke-linecap="round"/><path d="M 748 216 L 743.552 228.998 L 734.57 218.893 Z" fill="#d4a843"/><line x1="769" y1="196" x2="688.299" y2="225.373" stroke="#a9c9de" stroke-width="4" stroke-linecap="round"/><path d="M 678.79 228.834 L 686.343 219.998 L 690.256 230.748 Z" fill="#a9c9de"/><line x1="769" y1="196" x2="716.127" y2="263.674" stroke="#a9c9de" stroke-width="4" stroke-linecap="round"/><path d="M 709.896 271.649 L 711.62 260.153 L 720.634 267.196 Z" fill="#a9c9de"/><line x1="769" y1="196" x2="760.023" y2="281.41" stroke="#a9c9de" stroke-width="4" stroke-linecap="round"/><path d="M 758.965 291.474 L 754.334 280.812 L 765.712 282.007 Z" fill="#a9c9de"/><line x1="769" y1="196" x2="806.647" y2="273.188" stroke="#a9c9de" stroke-width="4" stroke-linecap="round"/><path d="M 811.084 282.284 L 801.506 275.696 L 811.788 270.681 Z" fill="#a9c9de"/><line x1="769" y1="196" x2="841.83" y2="241.509" stroke="#a9c9de" stroke-width="4" stroke-linecap="round"/><path d="M 850.413 246.872 L 838.799 246.36 L 844.862 236.659 Z" fill="#a9c9de"/><line x1="769" y1="196" x2="854.88" y2="196" stroke="#a9c9de" stroke-width="4" stroke-linecap="round"/><path d="M 865 196 L 854.88 201.72 L 854.88 190.28 Z" fill="#a9c9de"/><circle cx="769" cy="196" r="13" fill="#cfc7b6" stroke="#1a1a1a" stroke-width="3"/><text x="769" y="336" font-size="19" text-anchor="middle" font-weight="800" fill="#2d6ca8">空气分子散射蓝紫光</text><text x="769" y="358" font-size="18" text-anchor="middle" font-weight="700" fill="#5a5044">有选择性</text><text x="465" y="38" font-size="27" text-anchor="middle" font-weight="900" fill="#1a1a1a">大气对太阳辐射的削弱作用</text>
</svg>
